<svg width="200" height="230" xmlns="http://www.w3.org/2000/svg">

 <g>
  <title>Layer 1</title>
  <ellipse transform="rotate(5 68.5 49.4204)" stroke="#000" ry="42.5" rx="30" id="svg_1" cy="49.42041" cx="68.5" fill="#000000"/>
  <ellipse transform="rotate(5 64 95.4204)" ry="4.5" rx="9.5" id="svg_2" cy="95.42041" cx="64" stroke="#000" fill="#000000"/>
  <path stroke-width="3" d="m62.5,97.92041c1,0 1.4595,1.0535 1,3c-0.51373,2.17625 -1.48627,3.82375 -2,6c-0.22977,0.97325 -1,3 -1,4c0,1 -0.29291,1.29289 -1,2c-0.70709,0.70711 0,2 -1,3c-1,1 -1.71411,3.21167 -4,6c-1.79318,2.18735 -3.07611,3.61731 -4,4c-1.30655,0.5412 -2,3 -3,4c-1,1 -2.31021,0.71899 -5,4c-2.28589,2.78833 -4.1731,4.85274 -5,6c-1.30745,1.814 -1.29289,2.29289 -2,3c-0.70711,0.70711 -1,1 -3,3c-1,1 -2.87766,3.06601 -4,5c-1.80972,3.11848 -4,7 -5,9c-1,2 -1.5405,3.0535 -2,5c-1.02748,4.35251 -3,10 -3,14c0,2 -1,6 -1,9c0,5 0,8 0,11c0,3 0,4 0,6c0,2 0,4 0,5l0,1" id="svg_4" stroke="#000" fill="none"/>
  <ellipse transform="rotate(16 121.5 87.4204)" stroke="#000" ry="38" rx="25" id="svg_6" cy="87.42041" cx="121.5" fill="#000000"/>
  <ellipse transform="rotate(16 108 125.42)" ry="3" rx="8" id="svg_7" cy="125.42041" cx="108" stroke="#000" fill="#000000"/>
  <path transform="rotate(12 77.5894 166.42)" stroke="#000" stroke-width="3" d="m99.5,109.92041c1,0 1.4595,1.0535 1,3c-0.51373,2.17625 -1.48627,3.82375 -2,6c-0.22977,0.97325 -1,3 -1,4c0,1 -0.29291,1.29289 -1,2c-0.70709,0.70711 0,2 -1,3c-1,1 -1.71411,3.21167 -4,6c-1.79318,2.18735 -3.07611,3.61731 -4,4c-1.30655,0.5412 -2,3 -3,4c-1,1 -2.31021,0.71899 -5,4c-2.28589,2.78833 -4.1731,4.85274 -5,6c-1.30745,1.814 -1.29289,2.29289 -2,3c-0.70711,0.70711 -1,1 -3,3c-1,1 -2.87766,3.06601 -4,5c-1.80972,3.11848 -4,7 -5,9c-1,2 -1.5405,3.0535 -2,5c-1.02748,4.35251 -3,10 -3,14c0,2 -1,6 -1,9c0,5 0,8 0,11c0,3 0,4 0,6c0,2 0,4 0,5l0,1" id="svg_8" fill="none"/>
  <ellipse transform="rotate(42 163.251 147.347)" stroke="#000" ry="33.44559" rx="21.74684" id="svg_9" cy="147.34689" cx="163.25126" fill="#000000"/>
  <ellipse transform="rotate(42 139.459 172.083)" ry="2" rx="6" id="svg_10" cy="172.08305" cx="139.45943" stroke="#000" fill="#000000"/>
  <path transform="rotate(38 117.153 188.603)" stroke="#000" stroke-width="3" d="m139.06386,132.10251c1,0 1.4595,1.0535 1,3c-0.51373,2.17625 -1.48627,3.82375 -2,6c-0.22977,0.97325 -1,3 -1,4c0,1 -0.29291,1.29289 -1,2c-0.70709,0.70711 0,2 -1,3c-1,1 -1.71411,3.21167 -4,6c-1.79318,2.18735 -3.07611,3.61731 -4,4c-1.30655,0.5412 -2,3 -3,4c-1,1 -2.31021,0.71899 -5,4c-2.28589,2.78833 -4.1731,4.85274 -5,6c-1.30745,1.814 -1.29289,2.29289 -2,3c-0.70711,0.70711 -1,1 -3,3c-1,1 -2.87766,3.06601 -4,5c-1.80972,3.11848 -4,7 -5,9c-1,2 -1.5405,3.0535 -2,5c-1.02748,4.35251 -3,10 -3,14c0,2 -1,6 -1,9c0,5 0,8 0,11c0,3 0,4 0,6c0,2 0,4 0,5l0,1" id="svg_11" fill="none"/>
 </g>
</svg>